<?xml version="1.0" encoding="UTF-8"?> <svg xmlns="http://www.w3.org/2000/svg" width="41" height="41" viewBox="0 0 41 41" fill="none"><path d="M35.3121 20.9646L31.5281 24.7549C31.4155 24.561 31.2842 24.3796 31.1278 24.217L25.0984 18.1876C24.5155 17.6086 23.642 18.5011 24.2165 19.0757L30.2396 25.0988C31.4623 26.3908 29.628 28.173 28.3507 26.9878L22.3276 20.9646C22.0774 20.7206 21.6834 20.7206 21.4394 20.9646C21.1955 21.2085 21.1955 21.6025 21.4394 21.8527L21.9148 22.3218L27.4626 27.8759C27.988 28.395 27.988 29.2456 27.4626 29.7648C26.9435 30.2839 26.0991 30.2839 25.5737 29.7648L19.5506 23.7416C18.9742 23.1694 18.0848 24.0372 18.6624 24.6235L24.6918 30.6529C25.9014 31.9428 24.0822 33.7296 22.8029 32.5418L16.7735 26.5124C16.5296 26.2685 16.1356 26.2685 15.8916 26.5124C15.6477 26.7626 15.6477 27.1566 15.8916 27.4005L16.3545 27.8696C16.3679 27.8648 21.9022 33.4174 21.9148 33.4237C23.122 34.7159 21.3081 36.5036 20.0259 35.3126L5.67797 20.9646C2.10436 17.5448 2.11036 11.3983 5.67787 7.97388C9.0986 4.40537 15.2398 4.41438 18.6624 7.97379L19.6068 8.91824L13.4649 15.0665C12.269 16.2103 12.2614 18.2774 13.4586 19.4134C14.5855 20.6156 16.6889 20.6134 17.8118 19.4197L22.6028 14.6349C24.7201 16.3792 28.042 16.1983 29.9581 14.2221C30.5356 13.6426 29.6539 12.7594 29.0763 13.334C28.2569 14.1471 27.1811 14.5912 26.0428 14.5912C24.917 14.5912 23.8162 14.1345 23.0218 13.334C22.7717 13.09 22.3776 13.09 22.1337 13.334L16.9236 18.5378C16.2481 19.2258 15.0285 19.232 14.3467 18.5315C13.6342 17.8616 13.6343 16.6291 14.3467 15.9546L20.9328 9.36853C20.9361 9.36531 22.3213 7.98011 22.3276 7.97389C25.7408 4.40608 31.8934 4.40043 35.3121 7.97379C38.896 11.5577 38.896 17.3869 35.3121 20.9646Z" fill="url(#paint0_linear_12340_3202)"></path><defs><linearGradient id="paint0_linear_12340_3202" x1="3.00015" y1="20.4999" x2="37.9999" y2="20.4999" gradientUnits="userSpaceOnUse"><stop stop-color="#349F4B"></stop><stop offset="1" stop-color="#77D058"></stop></linearGradient></defs></svg> 