<?xml version="1.0" encoding="UTF-8"?> <svg xmlns="http://www.w3.org/2000/svg" width="41" height="41" viewBox="0 0 41 41" fill="none"><g clip-path="url(#clip0_12340_3229)"><path fill-rule="evenodd" clip-rule="evenodd" d="M9.28687 40.5L1.43164 29.8237L6.38992 26.1753L14.2452 36.8516L9.28687 40.5ZM14.1043 35.0391L15.7449 33.847C16.1599 33.5378 16.6649 33.3735 17.1824 33.3791H28.4782C28.8805 33.387 29.2802 33.3117 29.652 33.1577C30.0238 33.0038 30.3598 32.7747 30.6388 32.4848L38.9393 24.1844C39.1396 23.984 39.2985 23.7462 39.4069 23.4845C39.5153 23.2227 39.5711 22.9422 39.571 22.6589C39.571 22.3756 39.5152 22.0951 39.4068 21.8334C39.2983 21.5716 39.1394 21.3338 38.9391 21.1335C38.7387 20.9332 38.5009 20.7743 38.2392 20.6659C37.9774 20.5575 37.6969 20.5018 37.4136 20.5018C37.1303 20.5018 36.8498 20.5576 36.588 20.6661C36.3263 20.7745 36.0885 20.9334 35.8882 21.1337L30.803 26.2188C30.7499 26.9818 30.4095 27.6964 29.8505 28.2185C29.2914 28.7406 28.5552 29.0313 27.7903 29.0322H20.1695C20.0421 29.0322 19.9199 28.9816 19.8298 28.8915C19.7397 28.8014 19.6891 28.6791 19.6891 28.5517C19.6891 28.4243 19.7397 28.3021 19.8298 28.212C19.9199 28.1219 20.0421 28.0712 20.1695 28.0712H27.7903C28.0619 28.0729 28.3311 28.0209 28.5824 27.9181C28.8338 27.8154 29.0624 27.6639 29.255 27.4725C29.4476 27.281 29.6005 27.0534 29.7048 26.8027C29.8091 26.552 29.8628 26.2831 29.8628 26.0115C29.8628 25.74 29.8091 25.4711 29.7048 25.2204C29.6005 24.9696 29.4476 24.742 29.255 24.5506C29.0624 24.3591 28.8338 24.2077 28.5824 24.1049C28.3311 24.0022 28.0619 23.9501 27.7903 23.9518H20.1695C20.0736 23.9518 19.9798 23.9231 19.9002 23.8695C18.6008 22.9895 15.1395 22.6597 12.0588 23.5707C10.5859 24.0073 8.69164 24.876 7.865 26.5591L14.1043 35.0391ZM4.80148 29.4728C4.80141 29.7411 4.88091 30.0035 5.02993 30.2266C5.17895 30.4498 5.3908 30.6237 5.63869 30.7265C5.88658 30.8292 6.15936 30.8561 6.42255 30.8038C6.68574 30.7515 6.92751 30.6223 7.11728 30.4326C7.30705 30.2429 7.43629 30.0012 7.48867 29.738C7.54105 29.4748 7.5142 29.202 7.41153 28.9541C7.30887 28.7062 7.13498 28.4943 6.91187 28.3452C6.68877 28.1961 6.42646 28.1166 6.15812 28.1166C5.7985 28.1169 5.45371 28.2599 5.19938 28.5142C4.94506 28.7684 4.80196 29.1132 4.80148 29.4728ZM6.55383 29.4728C6.5538 29.3946 6.53056 29.3181 6.48706 29.253C6.44356 29.188 6.38175 29.1373 6.30945 29.1073C6.23714 29.0774 6.15758 29.0696 6.08083 29.0849C6.00408 29.1002 5.93359 29.1379 5.87827 29.1932C5.82294 29.2486 5.78527 29.3191 5.77001 29.3958C5.75476 29.4726 5.7626 29.5521 5.79256 29.6244C5.82251 29.6967 5.87323 29.7585 5.9383 29.802C6.00337 29.8455 6.07987 29.8687 6.15812 29.8687C6.21011 29.8687 6.26159 29.8585 6.30961 29.8386C6.35764 29.8187 6.40128 29.7895 6.43803 29.7528C6.47478 29.716 6.50392 29.6724 6.52379 29.6243C6.54366 29.5763 6.55387 29.5248 6.55383 29.4728ZM14.9877 8.40438L16.9213 7.92883C17.0305 7.61276 17.1588 7.30362 17.3055 7.00313L16.2739 5.29937C16.2183 5.20744 16.1951 5.09952 16.208 4.99284C16.2209 4.88617 16.2692 4.78691 16.3452 4.71094L18.8328 2.22305C18.9088 2.1471 19.0081 2.09884 19.1148 2.08596C19.2215 2.07309 19.3294 2.09635 19.4213 2.15203L21.1252 3.18328C21.4259 3.03702 21.735 2.90888 22.051 2.79953L22.5266 0.866172C22.5522 0.761765 22.612 0.668957 22.6966 0.602579C22.7812 0.536201 22.8855 0.500084 22.993 0.5H26.5108C26.6183 0.500075 26.7226 0.53617 26.8072 0.602517C26.8917 0.668865 26.9516 0.761638 26.9773 0.866016L27.4528 2.79937C27.7688 2.90867 28.078 3.03681 28.3786 3.18313L30.0825 2.15187C30.1744 2.0962 30.2823 2.07293 30.389 2.08581C30.4957 2.09868 30.595 2.14695 30.671 2.22289L33.1584 4.71094C33.2345 4.78688 33.2828 4.88615 33.2958 4.99283C33.3087 5.09952 33.2855 5.20746 33.2298 5.29937L32.1985 7.00313C32.345 7.30371 32.4733 7.61283 32.5827 7.92883L34.5162 8.40438C34.6205 8.43011 34.7133 8.49007 34.7796 8.57468C34.8459 8.6593 34.8819 8.76368 34.882 8.87117V12.3887C34.8819 12.4962 34.8459 12.6006 34.7796 12.6852C34.7133 12.7698 34.6205 12.8297 34.5162 12.8555L32.5826 13.331C32.4732 13.647 32.345 13.9561 32.1985 14.2567L33.2298 15.9605C33.2855 16.0525 33.3087 16.1604 33.2958 16.2671C33.2828 16.3738 33.2345 16.473 33.1584 16.549L30.671 19.0368C30.595 19.1127 30.4957 19.161 30.389 19.1739C30.2823 19.1868 30.1744 19.1635 30.0825 19.1078L28.3786 18.0759C28.0782 18.2228 27.769 18.3511 27.4528 18.4601L26.9773 20.3938C26.9516 20.4982 26.8917 20.591 26.8072 20.6573C26.7226 20.7237 26.6183 20.7598 26.5108 20.7598H22.993C22.8856 20.7598 22.7812 20.7237 22.6967 20.6573C22.6121 20.591 22.5522 20.4982 22.5266 20.3938L22.051 18.4601C21.7349 18.3509 21.4258 18.2226 21.1252 18.0759L19.4216 19.1078C19.3297 19.1635 19.2217 19.1868 19.115 19.1739C19.0084 19.161 18.9091 19.1127 18.833 19.0368L16.3455 16.549C16.2695 16.473 16.2212 16.3738 16.2082 16.2671C16.1953 16.1604 16.2185 16.0525 16.2741 15.9605L17.3058 14.2567C17.1593 13.9561 17.031 13.647 16.9216 13.331L14.988 12.8555C14.8836 12.8297 14.7909 12.7697 14.7247 12.6851C14.6584 12.6005 14.6224 12.4961 14.6224 12.3887V8.87117C14.6224 8.76371 14.6585 8.65935 14.7247 8.57474C14.791 8.49014 14.8834 8.43016 14.9877 8.40438ZM24.7518 16.1022C26.0171 16.1009 27.2428 15.661 28.2202 14.8574C29.1975 14.0537 29.866 12.9361 30.1118 11.6949C30.3575 10.4537 30.1654 9.16567 29.568 8.05025C28.9707 6.93482 28.0051 6.061 26.8357 5.57764C25.6664 5.09429 24.3656 5.03129 23.155 5.39938C21.9445 5.76748 20.8989 6.5439 20.1966 7.59638C19.4942 8.64886 19.1785 9.91228 19.3032 11.1714C19.4278 12.4306 19.9852 13.6076 20.8803 14.5019C21.3885 15.0104 21.9921 15.4135 22.6564 15.6882C23.3208 15.9628 24.0329 16.1035 24.7518 16.1022ZM21.8441 14.0823C22.6586 14.7662 23.6882 15.1411 24.7518 15.1411C25.8155 15.1411 26.845 14.7662 27.6596 14.0823C27.5058 13.4265 27.1349 12.8419 26.6071 12.4235C26.0792 12.0051 25.4254 11.7774 24.7518 11.7774C24.0783 11.7774 23.4245 12.0051 22.8966 12.4235C22.3688 12.8419 21.9978 13.4265 21.8441 14.0823ZM25.555 10.484C25.7409 10.2981 25.8566 10.0535 25.8824 9.79191C25.9082 9.53029 25.8424 9.26783 25.6964 9.04924C25.5504 8.83065 25.333 8.66947 25.0815 8.59315C24.8299 8.51684 24.5597 8.53011 24.3168 8.63071C24.0739 8.73132 23.8734 8.91302 23.7495 9.14487C23.6256 9.37672 23.5859 9.64436 23.6372 9.90219C23.6885 10.16 23.8276 10.3921 24.0308 10.5589C24.2341 10.7256 24.4888 10.8167 24.7517 10.8167C24.901 10.8171 25.0488 10.7879 25.1867 10.7308C25.3246 10.6737 25.4498 10.5898 25.555 10.484ZM21.5594 7.43789C20.8004 8.19678 20.3367 9.20126 20.2514 10.2711C20.1661 11.341 20.4647 12.4063 21.0938 13.2759C21.4924 12.3036 22.2597 11.5286 23.228 11.1204C22.9464 10.8227 22.7582 10.449 22.6867 10.0455C22.6151 9.642 22.6633 9.22638 22.8254 8.84999C22.9875 8.47361 23.2563 8.15295 23.5986 7.92766C23.9409 7.70236 24.3417 7.58229 24.7515 7.58229C25.1613 7.58229 25.5621 7.70236 25.9044 7.92766C26.2467 8.15295 26.5155 8.47361 26.6776 8.84999C26.8396 9.22638 26.8879 9.642 26.8163 10.0455C26.7447 10.449 26.5565 10.8227 26.2749 11.1204C27.2433 11.5285 28.0106 12.3035 28.4091 13.2759C29.0746 12.3561 29.3691 11.2194 29.2339 10.0922C29.0987 8.96507 28.5439 7.93021 27.6799 7.19384C26.8158 6.45747 25.7061 6.07367 24.5718 6.1189C23.4374 6.16413 22.362 6.63507 21.5594 7.43789Z" fill="url(#paint0_linear_12340_3229)"></path></g><defs><linearGradient id="paint0_linear_12340_3229" x1="39.571" y1="20.5" x2="1.43164" y2="20.5" gradientUnits="userSpaceOnUse"><stop stop-color="#04BDFD"></stop><stop offset="1" stop-color="#4481EB"></stop></linearGradient><clipPath id="clip0_12340_3229"><rect width="40" height="40" fill="white" transform="translate(0.5 0.5)"></rect></clipPath></defs></svg> 