<?xml version="1.0" encoding="UTF-8"?> <svg xmlns="http://www.w3.org/2000/svg" width="41" height="41" viewBox="0 0 41 41" fill="none"><path d="M11.9713 15.7073C12.2989 15.4166 12.6264 15.1218 12.9499 14.8311C13.3266 14.4912 13.5477 13.8811 13.5477 13.3816C13.5477 12.878 13.3266 12.2802 12.9499 11.9322C12.5609 11.576 12.0492 11.3098 11.5005 11.3344C10.9395 11.3589 10.4727 11.5596 10.0511 11.9322C9.15429 12.7347 8.2576 13.5373 7.36091 14.3398C5.93193 15.6173 4.50697 16.8989 3.07799 18.1763C2.75042 18.4671 2.42286 18.7619 2.09941 19.0526C1.73912 19.376 1.47709 20.0189 1.50159 20.502C1.52617 21.0262 1.69818 21.5871 2.09941 21.9515C2.99619 22.754 3.89279 23.5566 4.78957 24.359C6.21855 25.6365 7.64342 26.9181 9.07249 28.1957C9.40005 28.4863 9.72762 28.7811 10.0511 29.0719C10.4564 29.4363 10.9436 29.6697 11.5005 29.6697C12.0041 29.6697 12.6019 29.4485 12.9499 29.0719C13.3061 28.6829 13.5723 28.1711 13.5477 27.6224C13.5272 27.0983 13.3553 26.5374 12.9499 26.177C12.0532 25.3744 11.1565 24.5719 10.2598 23.7694C9.0437 22.6824 7.83014 21.5926 6.61503 20.5046C6.97284 20.1843 7.33066 19.8641 7.68847 19.5439C9.11745 18.2665 10.5423 16.9848 11.9713 15.7073Z" fill="url(#paint0_linear_12340_3209)"></path><path d="M38.9006 21.9508C39.2609 21.6274 39.523 20.9846 39.4984 20.5015C39.4738 19.9773 39.3018 19.4164 38.9006 19.052C38.0038 18.2495 37.1072 17.4469 36.2104 16.6444C34.7814 15.3669 33.3566 14.0853 31.9275 12.8078C31.5999 12.5171 31.2724 12.2223 30.9489 11.9316C30.5436 11.5672 30.0563 11.3338 29.4996 11.3338C28.9959 11.3338 28.3981 11.5549 28.0501 11.9316C27.6938 12.3206 27.4277 12.8324 27.4523 13.3811C27.4728 13.9051 27.6447 14.4661 28.0501 14.8264C28.9468 15.6289 29.8435 16.4316 30.7403 17.2341C31.9563 18.3211 33.1699 19.4109 34.385 20.4989C34.0271 20.8192 33.6693 21.1394 33.3115 21.4596C31.8825 22.737 30.4577 24.0187 29.0287 25.2961C28.7011 25.5868 28.3736 25.8817 28.0501 26.1723C27.6734 26.5122 27.4523 27.1223 27.4523 27.6218C27.4523 28.1255 27.6734 28.7233 28.0501 29.0712C28.4391 29.4275 28.9508 29.6936 29.4996 29.6691C30.0605 29.6445 30.5273 29.4439 30.9489 29.0712C31.8457 28.2687 32.7424 27.4661 33.6391 26.6637C35.0682 25.3862 36.493 24.1046 37.922 22.8271C38.2496 22.5364 38.5771 22.2416 38.9006 21.9508Z" fill="url(#paint1_linear_12340_3209)"></path><path d="M21.4663 11.0642C20.8807 12.8372 20.2952 14.6059 19.7097 16.3789C19.0054 18.5162 18.3012 20.6494 17.5928 22.7868C16.9827 24.6335 16.3727 26.4802 15.7626 28.3267C15.4637 29.2275 15.1525 30.1243 14.87 31.025C14.8659 31.0374 14.8618 31.0496 14.8577 31.0619C14.698 31.5492 14.8086 32.2043 15.0624 32.6383C15.3122 33.0642 15.7994 33.4696 16.2868 33.5801C16.8108 33.6988 17.4004 33.6742 17.8632 33.3754C18.3258 33.0805 18.6329 32.6793 18.8049 32.151C19.0506 31.414 19.2921 30.677 19.5378 29.9358C20.1233 28.1629 20.7089 26.3941 21.2944 24.6212C21.9987 22.4839 22.7029 20.3506 23.4113 18.2132C24.0214 16.3665 24.6314 14.5199 25.2415 12.6733C25.5404 11.7725 25.8516 10.8758 26.1341 9.97499C26.1382 9.96265 26.1423 9.9504 26.1464 9.93816C26.3061 9.45083 26.1955 8.7957 25.9417 8.36166C25.6919 7.93585 25.2047 7.53051 24.7173 7.41992C24.1933 7.30119 23.6037 7.32578 23.1409 7.62464C22.6783 7.9236 22.3752 8.32483 22.1992 8.84899C21.9535 9.58601 21.712 10.323 21.4663 11.0642Z" fill="url(#paint2_linear_12340_3209)"></path><defs><linearGradient id="paint0_linear_12340_3209" x1="20.5" y1="7.35352" x2="20.5" y2="33.6465" gradientUnits="userSpaceOnUse"><stop stop-color="#F7BA4F"></stop><stop offset="1" stop-color="#CE8C18"></stop></linearGradient><linearGradient id="paint1_linear_12340_3209" x1="20.5" y1="7.35352" x2="20.5" y2="33.6465" gradientUnits="userSpaceOnUse"><stop stop-color="#F7BA4F"></stop><stop offset="1" stop-color="#CE8C18"></stop></linearGradient><linearGradient id="paint2_linear_12340_3209" x1="20.5" y1="7.35352" x2="20.5" y2="33.6465" gradientUnits="userSpaceOnUse"><stop stop-color="#F7BA4F"></stop><stop offset="1" stop-color="#CE8C18"></stop></linearGradient></defs></svg> 