<?xml version="1.0" encoding="UTF-8"?> <svg xmlns="http://www.w3.org/2000/svg" width="41" height="41" viewBox="0 0 41 41" fill="none"><path d="M3 11.425V6.75C3 4.6875 4.6875 3 6.75 3H15.5C17.5625 3 19.25 4.6875 19.25 6.75V11.425C19.25 13.4875 17.5625 15.175 15.5 15.175H6.75C4.6875 15.175 3 13.4875 3 11.425ZM19.25 34.25V20.9625C19.25 18.9 17.5625 17.2125 15.5 17.2125H6.75C4.6875 17.2125 3 18.9 3 20.9625V34.25C3 36.3125 4.6875 38 6.75 38H15.5C17.5625 38 19.25 36.3125 19.25 34.25ZM34.25 25.825H25.5C23.4375 25.825 21.75 27.5125 21.75 29.575V34.25C21.75 36.3125 23.4375 38 25.5 38H34.25C36.3125 38 38 36.3125 38 34.25V29.575C38 27.5125 36.3125 25.825 34.25 25.825ZM34.25 3H25.5C23.4375 3 21.75 4.6875 21.75 6.75V20.0375C21.75 22.1 23.4375 23.7875 25.5 23.7875H34.25C36.3125 23.7875 38 22.1 38 20.0375V6.75C38 4.6875 36.3125 3 34.25 3Z" fill="url(#paint0_linear_12340_3195)"></path><defs><linearGradient id="paint0_linear_12340_3195" x1="3" y1="3" x2="3" y2="38" gradientUnits="userSpaceOnUse"><stop stop-color="#E100FF"></stop><stop offset="1" stop-color="#7F00FF"></stop></linearGradient></defs></svg> 